<svg width="1200" height="320" viewBox="0 0 1200 320" fill="none" xmlns="http://www.w3.org/2000/svg">
  <rect x="1" y="1" width="1198" height="318" rx="22" fill="#fbfbfa" stroke="#d8dee9" stroke-width="2"/>
  <rect x="32" y="36" width="1136" height="1.5" fill="#d8dee9"/>
  <text x="52" y="30" font-family="Consolas, Menlo, monospace" font-size="17" fill="#5b6472">README.md</text>

  <text x="62" y="112" font-family="Georgia, 'Times New Roman', serif" font-size="56" fill="#1f2937">Huang Hua Yu</text>
  <text x="64" y="154" font-family="Inter, Arial, sans-serif" font-size="25" fill="#2563eb">Aspiring Machine Learning Engineer</text>
  <text x="64" y="198" font-family="Inter, Arial, sans-serif" font-size="19" fill="#374151">
    Machine Learning · Algorithms · C++ · Python · MLOps Fundamentals
  </text>
  <text x="64" y="232" font-family="Inter, Arial, sans-serif" font-size="17" fill="#6b7280">
    Building reproducible ML pipelines and strengthening CS fundamentals.
  </text>

  <!-- neural graph -->
  <g transform="translate(610,78)">
    <line x1="20" y1="45" x2="130" y2="20" stroke="#9ca3af" stroke-width="2"/>
    <line x1="20" y1="45" x2="125" y2="95" stroke="#9ca3af" stroke-width="2"/>
    <line x1="20" y1="45" x2="220" y2="58" stroke="#2563eb" stroke-width="2"/>
    <line x1="130" y1="20" x2="220" y2="58" stroke="#9ca3af" stroke-width="2"/>
    <line x1="125" y1="95" x2="220" y2="58" stroke="#2563eb" stroke-width="2"/>
    <line x1="125" y1="95" x2="300" y2="112" stroke="#9ca3af" stroke-width="2"/>
    <line x1="220" y1="58" x2="315" y2="24" stroke="#9ca3af" stroke-width="2"/>
    <line x1="220" y1="58" x2="300" y2="112" stroke="#2563eb" stroke-width="2"/>
    <circle cx="20" cy="45" r="11" fill="#e5e7eb" stroke="#374151" stroke-width="2"/>
    <circle cx="130" cy="20" r="11" fill="#e5e7eb" stroke="#374151" stroke-width="2"/>
    <circle cx="125" cy="95" r="11" fill="#dbeafe" stroke="#2563eb" stroke-width="2"/>
    <circle cx="220" cy="58" r="11" fill="#dbeafe" stroke="#2563eb" stroke-width="2"/>
    <circle cx="315" cy="24" r="11" fill="#e5e7eb" stroke="#374151" stroke-width="2"/>
    <circle cx="300" cy="112" r="11" fill="#e5e7eb" stroke="#374151" stroke-width="2"/>
  </g>

  <!-- learning curve card -->
  <g transform="translate(930,78)">
    <rect x="0" y="0" width="205" height="150" rx="14" fill="#ffffff" stroke="#d8dee9" stroke-width="2"/>
    <text x="18" y="30" font-family="Inter, Arial, sans-serif" font-size="16" font-weight="600" fill="#1f2937">Learning Curve</text>
    <line x1="32" y1="120" x2="178" y2="120" stroke="#cbd5e1"/>
    <line x1="32" y1="48" x2="32" y2="120" stroke="#cbd5e1"/>
    <polyline points="32,108 62,88 92,72 122,56 152,45 178,36" fill="none" stroke="#2563eb" stroke-width="4"/>
    <circle cx="32" cy="108" r="5" fill="#ffffff" stroke="#2563eb" stroke-width="3"/>
    <circle cx="62" cy="88" r="5" fill="#ffffff" stroke="#2563eb" stroke-width="3"/>
    <circle cx="92" cy="72" r="5" fill="#ffffff" stroke="#2563eb" stroke-width="3"/>
    <circle cx="122" cy="56" r="5" fill="#ffffff" stroke="#2563eb" stroke-width="3"/>
    <circle cx="152" cy="45" r="5" fill="#ffffff" stroke="#2563eb" stroke-width="3"/>
    <circle cx="178" cy="36" r="5" fill="#ffffff" stroke="#2563eb" stroke-width="3"/>
  </g>

  <rect x="64" y="265" width="150" height="32" rx="16" fill="#eff6ff" stroke="#bfdbfe"/>
  <text x="86" y="287" font-family="Inter, Arial, sans-serif" font-size="15" fill="#1d4ed8">Machine Learning</text>
  <rect x="228" y="265" width="115" height="32" rx="16" fill="#f8fafc" stroke="#cbd5e1"/>
  <text x="253" y="287" font-family="Inter, Arial, sans-serif" font-size="15" fill="#334155">Algorithms</text>
  <rect x="357" y="265" width="89" height="32" rx="16" fill="#f8fafc" stroke="#cbd5e1"/>
  <text x="385" y="287" font-family="Inter, Arial, sans-serif" font-size="15" fill="#334155">MLOps</text>
  <rect x="460" y="265" width="75" height="32" rx="16" fill="#f8fafc" stroke="#cbd5e1"/>
  <text x="483" y="287" font-family="Inter, Arial, sans-serif" font-size="15" fill="#334155">IoT</text>
</svg>
